<svg width="6" height="10" viewBox="0 0 6 10" fill="none" xmlns="http://www.w3.org/2000/svg">
<path fill-rule="evenodd" clip-rule="evenodd" d="M0.90382 1.02882C0.932849 0.999718 0.967333 0.976629 1.0053 0.960875C1.04326 0.945121 1.08397 0.937012 1.12507 0.937012C1.16617 0.937012 1.20688 0.945121 1.24484 0.960875C1.28281 0.976629 1.31729 0.999718 1.34632 1.02882L5.09632 4.77882C5.12542 4.80785 5.14851 4.84233 5.16426 4.8803C5.18002 4.91827 5.18813 4.95897 5.18813 5.00007C5.18813 5.04118 5.18002 5.08188 5.16426 5.11984C5.14851 5.15781 5.12542 5.19229 5.09632 5.22132L1.34632 8.97132C1.28764 9.03 1.20805 9.06297 1.12507 9.06297C1.04209 9.06297 0.962499 9.03 0.90382 8.97132C0.845141 8.91264 0.812175 8.83306 0.812175 8.75007C0.812175 8.66709 0.845141 8.5875 0.90382 8.52882L4.43319 5.00007L0.90382 1.47132C0.874718 1.44229 0.851629 1.40781 0.835875 1.36984C0.820121 1.33188 0.812012 1.29117 0.812012 1.25007C0.812012 1.20897 0.820121 1.16827 0.835875 1.1303C0.851629 1.09233 0.874718 1.05785 0.90382 1.02882Z" fill="black"/>
</svg>
